<svg width="180" height="56" viewBox="0 0 180 56" fill="none" xmlns="http://www.w3.org/2000/svg">
<path fill-rule="evenodd" clip-rule="evenodd" d="M100.102 7.95252C96.1307 14.8438 88.8197 17.8867 80.967 14.6648L87.1047 1.8667L100.102 7.95252Z" fill="#00397A"/>
<path fill-rule="evenodd" clip-rule="evenodd" d="M103.983 23.2568C101.095 22.7198 98.5679 21.0194 97.3042 19.7664C96.5821 18.9609 97.0335 18.5134 97.3042 18.1554C99.29 15.56 102.991 10.6377 103.713 9.6532L109.219 12.2486L103.983 23.2568Z" fill="#00397A"/>
<path fill-rule="evenodd" clip-rule="evenodd" d="M80.6967 15.3804C82.2311 16.5438 88.7299 19.7657 92.4305 21.3767C95.8604 22.8981 99.5611 24.3301 103.081 25.1356L98.7487 34.1748L76.635 23.7931L80.6967 15.3804Z" fill="#00397A"/>
<path d="M13.3622 36.5918H17.3337V32.9224H5.59985V36.5918H9.48104V53.6857H13.3622V36.5918Z" fill="#00397A"/>
<path d="M19.5 53.6857H30.7825V49.9269H23.3812V44.915H30.4215V41.1561H23.3812V36.5918H30.7825V32.9224H19.5V53.6857Z" fill="#00397A"/>
<path d="M32.4973 32.9224L39.7181 43.3041L32.4973 53.6857H37.0103L41.9746 46.526L46.9389 53.6857H51.4519L44.2311 43.3041L51.4519 32.9224H46.9389L41.9746 39.9927L37.0103 32.9224H32.4973Z" fill="#00397A"/>
<path d="M57.4098 32.9224H53.5286V53.6857H57.4098V44.915H64.9013V53.6857H68.7825V32.9224H64.9013V41.1561H57.4098V32.9224Z" fill="#00397A"/>
<path d="M82.4117 32.4749C76.3643 32.4749 71.4902 37.3077 71.4902 43.304C71.4902 49.3004 76.4545 54.1332 82.4117 54.1332C88.3689 54.1332 93.3332 49.3899 93.3332 43.304C93.3332 37.3077 88.4591 32.4749 82.4117 32.4749ZM82.4117 36.2337C86.2929 36.2337 89.452 39.3661 89.452 43.304C89.452 47.1524 86.2929 50.4638 82.4117 50.4638C78.5305 50.4638 75.3714 47.1524 75.3714 43.304C75.3714 39.3661 78.5305 36.2337 82.4117 36.2337Z" fill="#00397A"/>
<path d="M94.5061 53.6857H96.7626L99.8315 46.705H109.58L112.648 53.6857H114.905L105.969 32.9224H103.622L94.5061 53.6857ZM100.644 44.8255L104.706 35.3388L108.767 44.8255H100.644Z" fill="#00397A"/>
<path d="M117.342 53.6857H122.306C126.819 53.6857 130.61 52.1643 130.61 47.7789C130.61 45.3625 129.347 43.4831 127.18 42.5881C128.625 41.6036 129.527 40.2611 129.527 38.4712C129.527 34.8913 126.278 32.9224 122.667 32.9224H117.432V53.6857H117.342ZM119.418 43.662H121.584C125.104 43.662 128.444 43.9305 128.444 47.7789C128.444 50.9113 125.465 51.7168 121.945 51.7168H119.328V43.662H119.418ZM119.418 34.8018H122.667C125.556 34.8018 127.271 36.1443 127.271 38.2922C127.271 41.4246 124.112 41.7826 121.584 41.7826H119.328V34.8018H119.418Z" fill="#00397A"/>
<path d="M135.665 32.9224H133.589V53.6857H135.755L148.211 35.8758V53.6857H150.377V32.9224H148.121L135.665 50.7323V32.9224Z" fill="#00397A"/>
<path d="M152.814 53.6857H155.071L158.14 46.705H167.888L170.957 53.6857H173.213L164.277 32.9224H161.931L152.814 53.6857ZM158.952 44.8255L163.014 35.3388L167.076 44.8255H158.952Z" fill="#00397A"/>
</svg>
