<?xml version="1.0" encoding="UTF-8"?>
<!DOCTYPE svg PUBLIC "-//W3C//DTD SVG 1.1//EN" "http://www.w3.org/Graphics/SVG/1.1/DTD/svg11.dtd">
<!-- Creator: CorelDRAW -->
<svg xmlns="http://www.w3.org/2000/svg" xml:space="preserve" width="24.9614mm" height="24.7654mm" version="1.1" style="shape-rendering:geometricPrecision; text-rendering:geometricPrecision; image-rendering:optimizeQuality; fill-rule:evenodd; clip-rule:evenodd"
viewBox="0 0 326.91 324.35"
 xmlns:xlink="http://www.w3.org/1999/xlink"
 xmlns:xodm="http://www.corel.com/coreldraw/odm/2003">
 <defs>
  <style type="text/css">
   <![CDATA[
    .fil0 {fill:#2C3E50;fill-rule:nonzero}
    .fil1 {fill:white;fill-rule:nonzero}
   ]]>
  </style>
 </defs>
 <g id="Слой_x0020_1">
  <metadata id="CorelCorpID_0Corel-Layer"/>
  <rect class="fil0" width="326.91" height="324.35"/>
  <path class="fil1" d="M267.96 159.78l4.02 -4.73c1.32,-1.79 2.81,-3.45 4.43,-4.87 2.5,-2.27 5.37,-4.12 8.45,-5.51l0 -99.42 -16.9 0 0 114.53z"/>
  <path class="fil1" d="M233.34 189.93l12.18 0 1.25 -1.51c2.64,-3.35 5.27,-6.89 7.81,-10.49 0.7,-0.99 1.39,-1.99 2.08,-2.98l0 -25.59 -40.54 0 0 25.19c7.36,3 13.44,8.48 17.22,15.39z"/>
  <polygon class="fil1" points="204.81,172.01 204.81,149.36 164.27,149.36 164.27,172.01 204.61,172.01 "/>
  <path class="fil1" d="M152.97 172.01l0 -22.65 -40.54 0 0 25.51c6.82,-2.24 13.9,-3.56 21.12,-3.56 1.78,0 3.55,0.06 5.2,0.23 2.75,0.23 5.65,0.49 8.52,0.49l5.69 0z"/>
  <path class="fil1" d="M60.59 189.93l24.52 0c2.62,-1.86 5.3,-3.63 8.03,-5.3 2.59,-1.58 5.26,-3.07 7.99,-4.45l0 -30.83 -40.54 0 0 40.58z"/>
  <path class="fil1" d="M40.84 223.4c2.7,-2.19 5.54,-4.26 8.45,-6.15l0 -172 -16.9 0 0 184.38c0.98,-0.65 2.01,-1.23 3.09,-1.76 1.73,-1.52 3.51,-3.02 5.36,-4.47z"/>
  <polygon class="fil1" points="204.81,128.26 204.81,96.96 164.27,96.96 164.27,128.26 164.27,137.54 204.81,137.54 "/>
  <polygon class="fil1" points="152.97,128.26 152.97,96.96 112.43,96.96 112.43,128.26 112.43,137.54 152.97,137.54 "/>
  <polygon class="fil1" points="101.13,128.26 101.13,96.96 60.59,96.96 60.59,128.26 60.59,137.54 101.13,137.54 "/>
  <polygon class="fil1" points="256.65,128.26 256.65,96.96 216.11,96.96 216.11,128.26 216.11,137.54 256.65,137.54 "/>
  <polygon class="fil1" points="204.81,75.86 204.81,44.57 164.27,44.57 164.27,75.86 164.27,85.15 204.81,85.15 "/>
  <polygon class="fil1" points="152.97,75.86 152.97,44.57 112.43,44.57 112.43,75.86 112.43,85.15 152.97,85.15 "/>
  <polygon class="fil1" points="101.13,75.86 101.13,44.57 60.59,44.57 60.59,75.86 60.59,85.15 101.13,85.15 "/>
  <polygon class="fil1" points="256.65,75.86 256.65,44.57 216.11,44.57 216.11,75.86 216.11,85.15 256.65,85.15 "/>
  <polygon class="fil1" points="284.85,21.8 284.85,35.24 32.09,35.24 32.09,21.8 32.09,17.81 284.85,17.81 "/>
  <path class="fil1" d="M309.44 158.84c-3.38,-2.4 -7.27,-3.55 -11.09,-3.55 -4.97,0 -9.84,1.89 -13.49,5.55 -0.81,0.74 -1.55,1.62 -2.23,2.57l-0.4 0.51c-0.04,0.03 -0.07,0.07 -0.07,0.1 -1.89,3.01 -3.79,5.98 -5.75,8.96 -2.74,4.23 -5.54,8.38 -8.45,12.51 -2.67,3.79 -5.44,7.5 -8.32,11.16 -3.79,4.6 -7.81,9.5 -12.2,14.2 -2.7,2.94 -5.58,5.81 -8.59,8.45 -3.55,3.18 -7.3,6.05 -11.29,8.45 -7.03,4.26 -14.81,7.03 -23.5,7.27 -19.61,0.1 -39.55,0.17 -59.13,-0.47 -4.36,-0.24 -6.49,-3.52 -6.49,-6.8 0,-3.28 2.2,-6.56 6.59,-6.73 13.69,-0.2 27.38,-0.13 41.07,0.1l20.18 0.34c3.08,-0.03 6.32,-0.84 9.53,-2.16 2.23,-0.88 4.43,-1.99 6.59,-3.31 1.15,-0.74 2.3,-1.49 3.41,-2.3 0.34,-0.91 0.61,-1.86 0.81,-2.84 0.31,-1.42 0.47,-2.87 0.47,-4.4 0,-11.8 -9.53,-21.33 -21.3,-21.33l-58.79 0c-3.25,0 -6.49,-0.27 -9.74,-0.54 -1.32,-0.13 -2.67,-0.17 -3.99,-0.17 -12.34,0 -24.51,4.97 -35.06,11.43 -2.94,1.76 -5.78,3.69 -8.45,5.65 -3.04,2.2 -5.88,4.43 -8.45,6.63 -9.77,8.28 -15.92,15.52 -15.92,15.52 -5.68,6.73 -15.65,12.2 -23.83,15.85 -7.17,3.21 -10.31,11.7 -7.03,18.83l21.03 44.18c2.43,5.24 7.57,8.22 12.85,8.22 2.77,0 5.58,-0.81 8.05,-2.5l36.61 -16.26c8.79,-4.12 18.29,-6.52 27.99,-7.17 29.82,-1.96 89.35,-8.01 94.35,-8.55 13.62,-1.49 20.62,-9.36 32.42,-24.68l16.67 -23.8 0.34 0 0 -0.47 29.18 -41.61c6.12,-8.65 4.09,-20.65 -4.6,-26.81l0 0z"/>
 </g>
</svg>
