<?xml version="1.0" encoding="UTF-8"?>
<!DOCTYPE svg PUBLIC "-//W3C//DTD SVG 1.1//EN" "http://www.w3.org/Graphics/SVG/1.1/DTD/svg11.dtd">
<!-- Creator: CorelDRAW -->
<svg xmlns="http://www.w3.org/2000/svg" xml:space="preserve" width="7.6181mm" height="7.5583mm" version="1.1" style="shape-rendering:geometricPrecision; text-rendering:geometricPrecision; image-rendering:optimizeQuality; fill-rule:evenodd; clip-rule:evenodd"
viewBox="0 0 46.36 46"
 xmlns:xlink="http://www.w3.org/1999/xlink"
 xmlns:xodm="http://www.corel.com/coreldraw/odm/2003">
 <defs>
  <style type="text/css">
   <![CDATA[
    .fil0 {fill:#2C3E50;fill-rule:nonzero}
    .fil1 {fill:white;fill-rule:nonzero}
   ]]>
  </style>
 </defs>
 <g id="Слой_x0020_1">
  <metadata id="CorelCorpID_0Corel-Layer"/>
  <rect class="fil0" x="-0" y="0" width="46.36" height="46"/>
  <path class="fil1" d="M35.84 24.61l0.49 -0.57c0.16,-0.22 0.34,-0.42 0.54,-0.59 0.3,-0.27 0.65,-0.5 1.02,-0.67l0 -12.05 -2.05 0 0 13.88z"/>
  <path class="fil1" d="M31.65 28.26l1.48 0 0.15 -0.18c0.32,-0.41 0.64,-0.83 0.95,-1.27 0.08,-0.12 0.17,-0.24 0.25,-0.36l0 -3.1 -4.91 0 0 3.05c0.89,0.36 1.63,1.03 2.09,1.87z"/>
  <polygon class="fil1" points="28.19,26.09 28.19,23.34 23.28,23.34 23.28,26.09 28.17,26.09 "/>
  <path class="fil1" d="M21.91 26.09l0 -2.74 -4.91 0 0 3.09c0.83,-0.27 1.68,-0.43 2.56,-0.43 0.22,0 0.43,0.01 0.63,0.03 0.33,0.03 0.68,0.06 1.03,0.06l0.69 0z"/>
  <path class="fil1" d="M10.72 28.26l2.97 0c0.32,-0.23 0.64,-0.44 0.97,-0.64 0.31,-0.19 0.64,-0.37 0.97,-0.54l0 -3.74 -4.91 0 0 4.92z"/>
  <path class="fil1" d="M8.33 32.32c0.33,-0.27 0.67,-0.52 1.02,-0.75l0 -20.84 -2.05 0 0 22.34c0.12,-0.08 0.24,-0.15 0.37,-0.21 0.21,-0.19 0.43,-0.37 0.65,-0.54z"/>
  <polygon class="fil1" points="28.19,20.79 28.19,16.99 23.28,16.99 23.28,20.79 23.28,21.91 28.19,21.91 "/>
  <polygon class="fil1" points="21.91,20.79 21.91,16.99 17,16.99 17,20.79 17,21.91 21.91,21.91 "/>
  <polygon class="fil1" points="15.63,20.79 15.63,16.99 10.72,16.99 10.72,20.79 10.72,21.91 15.63,21.91 "/>
  <polygon class="fil1" points="34.47,20.79 34.47,16.99 29.56,16.99 29.56,20.79 29.56,21.91 34.47,21.91 "/>
  <polygon class="fil1" points="28.19,14.44 28.19,10.65 23.28,10.65 23.28,14.44 23.28,15.56 28.19,15.56 "/>
  <polygon class="fil1" points="21.91,14.44 21.91,10.65 17,10.65 17,14.44 17,15.56 21.91,15.56 "/>
  <polygon class="fil1" points="15.63,14.44 15.63,10.65 10.72,10.65 10.72,14.44 10.72,15.56 15.63,15.56 "/>
  <polygon class="fil1" points="34.47,14.44 34.47,10.65 29.56,10.65 29.56,14.44 29.56,15.56 34.47,15.56 "/>
  <polygon class="fil1" points="37.89,5.51 37.89,9.52 7.26,9.52 7.26,5.51 7.26,4.32 37.89,4.32 "/>
  <path class="fil1" d="M40.87 24.49c-0.41,-0.29 -0.88,-0.43 -1.34,-0.43 -0.6,0 -1.19,0.23 -1.63,0.67 -0.1,0.09 -0.19,0.2 -0.27,0.31l-0.05 0.06c-0,0 -0.01,0.01 -0.01,0.01 -0.23,0.36 -0.46,0.72 -0.7,1.09 -0.33,0.51 -0.67,1.02 -1.02,1.52 -0.32,0.46 -0.66,0.91 -1.01,1.35 -0.46,0.56 -0.95,1.15 -1.48,1.72 -0.33,0.36 -0.68,0.7 -1.04,1.02 -0.43,0.39 -0.88,0.73 -1.37,1.02 -0.85,0.52 -1.79,0.85 -2.85,0.88 -2.38,0.01 -4.79,0.02 -7.16,-0.06 -0.53,-0.03 -0.79,-0.43 -0.79,-0.82 0,-0.4 0.27,-0.79 0.8,-0.82 1.66,-0.02 3.32,-0.02 4.98,0.01l2.45 0.04c0.37,-0 0.77,-0.1 1.16,-0.26 0.27,-0.11 0.54,-0.24 0.8,-0.4 0.14,-0.09 0.28,-0.18 0.41,-0.28 0.04,-0.11 0.07,-0.23 0.1,-0.34 0.04,-0.17 0.06,-0.35 0.06,-0.53 0,-1.43 -1.16,-2.58 -2.58,-2.58l-7.12 0c-0.39,0 -0.79,-0.03 -1.18,-0.07 -0.16,-0.02 -0.32,-0.02 -0.48,-0.02 -1.49,0 -2.97,0.6 -4.25,1.38 -0.36,0.21 -0.7,0.45 -1.02,0.68 -0.37,0.27 -0.71,0.54 -1.02,0.8 -1.18,1 -1.93,1.88 -1.93,1.88 -0.69,0.81 -1.9,1.48 -2.89,1.92 -0.87,0.39 -1.25,1.42 -0.85,2.28l2.55 5.35c0.3,0.64 0.92,1 1.56,1 0.34,0 0.68,-0.1 0.97,-0.3l4.44 -1.97c1.07,-0.5 2.22,-0.79 3.39,-0.87 3.61,-0.24 10.83,-0.97 11.43,-1.04 1.65,-0.18 2.5,-1.13 3.93,-2.99l2.02 -2.88 0.04 0 0 -0.06 3.53 -5.04c0.74,-1.05 0.5,-2.5 -0.56,-3.25l0 0z"/>
 </g>
</svg>
