<?xml version="1.0" encoding="UTF-8"?>
<!DOCTYPE svg PUBLIC "-//W3C//DTD SVG 1.1//EN" "http://www.w3.org/Graphics/SVG/1.1/DTD/svg11.dtd">
<!-- Creator: CorelDRAW -->
<svg xmlns="http://www.w3.org/2000/svg" xml:space="preserve" width="20.1552mm" height="12.8605mm" version="1.1" style="shape-rendering:geometricPrecision; text-rendering:geometricPrecision; image-rendering:optimizeQuality; fill-rule:evenodd; clip-rule:evenodd"
viewBox="0 0 443.66 283.09"
 xmlns:xlink="http://www.w3.org/1999/xlink"
 xmlns:xodm="http://www.corel.com/coreldraw/odm/2003">
 <defs>
  <style type="text/css">
   <![CDATA[
    .fil1 {fill:red;fill-rule:nonzero}
    .fil0 {fill:url(#id0)}
   ]]>
  </style>
  <linearGradient id="id0" gradientUnits="userSpaceOnUse" x1="49.78" y1="270.32" x2="359.28" y2="42">
   <stop offset="0" style="stop-opacity:1; stop-color:#1BC3E1"/>
   <stop offset="1" style="stop-opacity:1; stop-color:#0A1C80"/>
  </linearGradient>
 </defs>
 <g id="Слой_x0020_1">
  <metadata id="CorelCorpID_0Corel-Layer"/>
  <path class="fil0" d="M412.83 0l-378.66 0c-8.47,0 -15.4,6.93 -15.4,15.4l0 85.52 11.01 -1.7 0 -51.11c0,-2.4 2,-4.4 4.4,-4.4l354.7 0 23.95 -3.7 1.53 3.98c1.67,0.63 2.88,2.25 2.88,4.12l0 3.36 11.01 28.6 0 -64.67c0,-8.47 -6.93,-15.4 -15.4,-15.4zm-394.06 227.61l0 44.47 -12.03 0 0 11.01 12.03 0 178.84 0 51.79 0 178.84 0 12.03 0 0 -11.01 -12.03 0 0 -107.77 -11.01 1.7 0 106.07 -167.83 0 0 -70.31c0,-3.42 -0.91,-6.64 -2.51,-9.43l-9.8 1.51c2.03,1.47 3.5,3.49 3.5,5.71l0 72.51 -34.18 0 0 -72.51c0,-0.33 0.03,-0.66 0.1,-0.98l-8.81 1.36c-0.06,0.6 -0.09,1.21 -0.09,1.82l0 70.31 -167.83 0 0 -46.17 -11.01 1.7zm136.65 -158.71l26.78 0c0.61,0 1.1,0.5 1.1,1.1l0 5.49 3.3 -0.51 0 -4.98c0,-2.42 -1.98,-4.4 -4.4,-4.4l-26.78 0c-2.42,0 -4.4,1.98 -4.4,4.4l0 10.48 3.3 -0.51 0 -9.97c0,-0.61 0.5,-1.1 1.1,-1.1zm-54.69 0l26.78 0c0.61,0 1.1,0.5 1.1,1.1l0 13.94 3.3 -0.51 0 -13.43c0,-2.42 -1.98,-4.4 -4.4,-4.4l-26.78 0c-2.42,0 -4.4,1.98 -4.4,4.4l0 18.99c1.09,-0.14 2.19,-0.26 3.3,-0.36l0 -18.63c0,-0.61 0.5,-1.1 1.1,-1.1zm27.89 19.73l0 4.92c0.28,0.18 0.57,0.35 0.84,0.54l-0.84 -5.46zm-82.58 -19.73l26.78 0c0.61,0 1.1,0.5 1.1,1.1l0 22.4 3.3 -0.51 0 -21.89c0,-2.42 -1.98,-4.4 -4.4,-4.4l-26.78 0c-2.42,0 -4.4,1.98 -4.4,4.4l0 27.39 0.81 -0.13 1.98 5.16c0.5,0.2 1.04,0.3 1.6,0.3l8.33 0 -0.51 -3.3 -7.81 0c-0.61,0 -1.1,-0.5 -1.1,-1.1l0 -28.33c0,-0.61 0.5,-1.1 1.1,-1.1zm164.08 0l15.82 0 13.92 -2.15c-0.78,-0.71 -1.82,-1.15 -2.96,-1.15l-26.78 0c-2.42,0 -4.4,1.98 -4.4,4.4l0 2.03 3.3 -0.51 0 -1.51c0,-0.61 0.5,-1.1 1.1,-1.1zm81.48 132.23l-4.24 0 7.97 -1.23c0.43,0.68 0.67,1.48 0.67,2.33l0 28.33c0,2.42 -1.98,4.4 -4.4,4.4l-26.78 0c-2.42,0 -4.4,-1.98 -4.4,-4.4l0 -28.33c0,-2.42 1.98,-4.4 4.4,-4.4l21.29 0 0.51 3.3 -21.8 0c-0.6,0 -1.1,0.5 -1.1,1.1l0 28.33c0,0.6 0.5,1.1 1.1,1.1l26.78 0c0.6,0 1.1,-0.5 1.1,-1.1l0 -28.33c0,-0.6 -0.5,-1.1 -1.1,-1.1zm54.69 0l-26.78 0c-0.6,0 -1.1,0.5 -1.1,1.1l0 28.33c0,0.6 0.5,1.1 1.1,1.1l26.78 0c0.6,0 1.1,-0.5 1.1,-1.1l0 -28.33c0,-0.6 -0.5,-1.1 -1.1,-1.1zm54.69 0l-26.78 0c-0.6,0 -1.1,0.5 -1.1,1.1l0 28.33c0,0.6 0.5,1.1 1.1,1.1l26.78 0c0.6,0 1.1,-0.5 1.1,-1.1l0 -28.33c0,-0.6 -0.5,-1.1 -1.1,-1.1zm-356.05 22.43l0 6.99c0,0.6 0.5,1.1 1.1,1.1l26.78 0c0.6,0 1.1,-0.5 1.1,-1.1l0 -11.47 3.3 -0.51 0 11.98c0,2.42 -1.98,4.4 -4.4,4.4l-26.78 0c-2.42,0 -4.4,-1.98 -4.4,-4.4l0 -6.48 3.3 -0.51zm82.58 -22.43l-11.16 0 -0.51 -3.3 11.67 0c2.42,0 4.4,1.98 4.4,4.4l0 28.33c0,2.42 -1.98,4.4 -4.4,4.4l-26.78 0c-2.42,0 -4.4,-1.98 -4.4,-4.4l0 -14.93 3.3 -0.51 0 15.44c0,0.6 0.5,1.1 1.1,1.1l26.78 0c0.6,0 1.1,-0.5 1.1,-1.1l0 -28.33c0,-0.6 -0.5,-1.1 -1.1,-1.1zm26.81 5.53l0 23.9c0,0.6 0.5,1.1 1.1,1.1l26.78 0c0.6,0 1.1,-0.5 1.1,-1.1l0 -28.33 -0 -0.05 3.27 -0.51c0.02,0.18 0.04,0.37 0.04,0.56l0 28.33c0,2.42 -1.98,4.4 -4.4,4.4l-26.78 0c-2.42,0 -4.4,-1.98 -4.4,-4.4l0 -23.39 3.3 -0.51zm251.06 -59.13l0 4.82 -0.05 -4.81 0.05 -0.01zm-2.06 20.64c-0.68,0.43 -1.48,0.68 -2.34,0.68l-2.04 0 4.38 -0.68zm-57.03 29.66l-26.78 0c-2.42,0 -4.4,1.98 -4.4,4.4l0 28.33c0,2.42 1.98,4.4 4.4,4.4l26.78 0c2.42,0 4.4,-1.98 4.4,-4.4l0 -28.33c0,-2.42 -1.98,-4.4 -4.4,-4.4zm54.69 0l-26.78 0c-2.42,0 -4.4,1.98 -4.4,4.4l0 28.33c0,2.42 1.98,4.4 4.4,4.4l26.78 0c2.42,0 4.4,-1.98 4.4,-4.4l0 -28.33c0,-2.42 -1.98,-4.4 -4.4,-4.4z"/>
  <path class="fil1" d="M24.07 215.66l-0.22 -20.29 18.77 -2.9 6.46 19.32 24.2 -3.74 -37.92 -98.55 -28.83 4.45 -6.54 105.43 24.07 -3.72zm13.46 -40.78l-13.87 2.14 -0.13 -46.76 0.28 -0.04 13.72 44.66zm55.05 -55.43l2.58 -0.4c3.81,-0.59 7.07,-1.09 9.51,-0.63 4.37,1.27 5.7,7.19 6.31,11.13 0.55,3.54 0.63,7.7 -1.39,10.8 -3.34,3.58 -8.59,3.83 -13.06,4.66l-3.95 -25.57zm12.93 83.62l-6.14 -39.71c8.91,-1.79 18.75,-2.06 26.42,-7.42 10.1,-6.71 10.77,-19.49 9.07,-30.5 -1.28,-8.29 -3.54,-15.74 -10.09,-21.13 -7.84,-6.58 -21.29,-5.34 -30.54,-3.91l-28.42 4.39 15.77 101.98 23.93 -3.7zm107.14 -16.56l-3.15 -20.4 -32.5 5.02 -3.4 -22.03 29.91 -4.62 -3.15 -20.4 -29.91 4.62 -2.9 -18.77 30.86 -4.77 -3.15 -20.39 -54.79 8.47 15.77 101.98 56.42 -8.72zm34.81 -5.38l-6.56 -42.42 16.59 -2.56 6.56 42.42 23.93 -3.7 -15.77 -101.98 -23.93 3.7 6.05 39.16 -16.59 2.56 -6.05 -39.16 -23.93 3.7 15.76 101.97 23.93 -3.7zm42.94 -27.52l5.42 35.08 21.89 -3.39 -2.27 -14.68 31.81 -4.92 2.27 14.68 21.89 -3.38 -5.42 -35.08 -5.57 0.86 -12.61 -81.58 -58.6 9.06 8.18 52.89c3.03,19.58 4.44,28.69 -6.99,30.45zm46.09 -7.13l-17.81 2.76c3.81,-8.66 2.21,-19 0.59,-29.47l-5.02 -32.5 12.78 -1.98 9.46 61.18zm57.95 11.93l-0.21 -20.29 18.77 -2.9 6.46 19.32 24.2 -3.74 -37.92 -98.55 -28.82 4.45 -6.54 105.43 24.07 -3.72zm13.46 -40.78l-13.87 2.14 -0.13 -46.76 0.28 -0.04 13.72 44.66z"/>
 </g>
</svg>
